# AST/ASF file generated using VICON BodyLanguage
# -----------------------------------------------
:version 1.10
:name VICON
:units
  mass 1.0
  length 0.45
  angle deg
:documentation
   .ast/.asf automatically generated from VICON data using
   VICON BodyBuilder and BodyLanguage model FoxedUp or BRILLIANT.MOD
:root
   order TX TY TZ RX RY RZ
   axis XYZ
   position 0 0 0  
   orientation 0 0 0 
:bonedata
  begin
     id 1 
     name lhipjoint
     direction 0.78388 -0.462562 0.414208 
     length 3.01181 
     axis 0 0 0  XYZ
  end
  begin
     id 2 
     name lfemur
     direction 0.34202 -0.939693 0  
     length 6.04673  
     axis 0 0 20  XYZ
    dof rx ry rz
    limits (-160.0 20.0)
           (-70.0 70.0)
           (-60.0 70.0)
  end
  begin
     id 3 
     name ltibia
     direction 0.34202 -0.939693 0   
     length 7.211   
     axis 0 0 20   XYZ
    dof rx
    limits (-10.0 170.0)
  end
  begin
     id 4 
     name lfoot
     direction 0.121887 -0.334882 0.934344   
     length 2.13567   
     axis -90 7.62852e-016 20   XYZ
    dof rx rz
    limits (-45.0 90.0)
           (-70.0 20.0)
  end
  begin
     id 5 
     name ltoes
     direction 1.53555e-011 -4.2179e-011 1   
     length 1.05957   
     axis -90 7.62852e-016 20   XYZ
    dof rx
    limits (-90.0 20.0)
  end
  begin
     id 6 
     name rhipjoint
     direction -0.769387 -0.475875 0.426129   
     length 2.92756  
     axis 0 0 0  XYZ 
  end
  begin
     id 7 
     name rfemur
     direction -0.34202 -0.939693 0   
     length 6.35468   
     axis 0 0 -20   XYZ
    dof rx ry rz
    limits (-160.0 20.0)
           (-70.0 70.0)
           (-70.0 60.0)
  end
  begin
     id 8 
     name rtibia
     direction -0.34202 -0.939693 0   
     length 7.37886   
     axis 0 0 -20   XYZ
    dof rx
    limits (-10.0 170.0)
 end
 begin
     id 9 
     name rfoot
     direction -0.101763 -0.279592 0.954711   
     length 2.21478  
     axis -90 -7.62852e-016 -20   XYZ
    dof rx rz
    limits (-45.0 90.0)
           (-20.0 70.0)
  end
  begin
     id 10 
     name rtoes
     direction -1.53494e-011 -4.21851e-011 1   
     length 1.10506   
     axis -90 -7.62852e-016 -20   XYZ
    dof rx
    limits (-90.0 20.0)
  end
  begin
     id 11 
     name lowerback
     direction 0.00747405 0.999267 0.0375481   
     length 2.13259   
     axis 0 0 0   XYZ
    dof rx ry rz
    limits (-20.0 45.0)
           (-30.0 30.0)
           (-30.0 30.0)
  end
  begin
     id 12 
     name upperback
     direction 0.00661626 0.996177 0.0871029   
     length 2.10528   
     axis 0 0 0   XYZ
    dof rx ry rz
    limits (-20.0 45.0)
           (-30.0 30.0)
           (-30.0 30.0)
  end
  begin
     id 13 
     name thorax
     direction 0.00320659 0.997679 0.0680167   
     length 2.11338   
     axis 0 0 0   XYZ
    dof rx ry rz
    limits (-20.0 45.0)
           (-30.0 30.0)
           (-30.0 30.0)
  end
  begin
     id 14 
     name lowerneck
     direction 0.0374841 0.973033 0.227602   
     length 1.42765   
     axis 0 0 0   XYZ
    dof rx ry rz
    limits (-20.0 45.0)
           (-30.0 30.0)
           (-30.0 30.0)
  end
  begin
     id 15 
     name upperneck
     direction 0.00481585 0.989155 -0.146795   
     length 1.47593   
     axis 0 0 0   XYZ
    dof rx ry rz
    limits (-20.0 45.0)
           (-30.0 30.0)
           (-30.0 30.0)
  end
  begin
     id 16
     name head
     direction -0.00292522 0.997206 -0.0746423  
     length 1.48116  
     axis 0 0 0   XYZ
    dof rx ry rz
    limits (-20.0 45.0)
           (-30.0 30.0)
           (-30.0 30.0)
  end
  begin
     id 17 
     name lclavicle
     direction 0.951444 0.305606 0.0368784  
     length 3.01855  
     axis 0 0 0   XYZ
    dof ry rz
    limits (-20.0 10.0)
           (0.0 20.0)
  end
  begin
     id 18 
     name lhumerus
     direction 1 -4.48977e-011 2.61664e-027   
     length 5.52731   
     axis 180 -30 -90   XYZ
    dof rx ry rz
    limits (-60.0 90.0)
           (-90.0 90.0)
           (-90.0 90.0)
  end
  begin
     id 19
     name lradius
     direction 1 -4.48944e-011 8.22157e-027   
     length 3.11059   
     axis 180 -30 -90   XYZ
    dof rx
    limits (-10.0 170.0)
  end
  begin
     id 20
     name lwrist
     direction 1 -4.48976e-011 1.5779e-026   
     length 1.5553   
     axis -1.15221e-014 90 90   XYZ
    dof ry
    limits (-180.0 0.0)
 end
  begin
     id 21 
     name lhand
     direction 1 -4.49025e-011 3.1558e-026   
     length 0.419626   
     axis -2.01367e-014 90 90   XYZ
    dof rx rz
    limits (-90.0 90.0)
           (-45.0 45.0)
  end
  begin
     id 22 
     name lfingers
     direction 1 -4.4904e-011 6.31161e-026   
     length 0.338313   
     axis -4.02734e-014 90 90   XYZ
    dof rx
    limits (0.0 90.0)
  end
  begin
     id 23
     name lthumb
     direction 0.707107 -6.35004e-011 0.707107   
     length 0.485752   
     axis -90 45 2.85299e-015   XYZ
    dof rx rz
    limits (-45.0 45.0)
           (-45.0 45.0)
  end
  begin
     id 24 
     name rclavicle
     direction -0.968876 0.223791 0.105816   
     length 3.04177  
     axis 0 0 0   XYZ 
    dof ry rz
    limits (-10.0 20.0)
           (-20.0 0.0)
  end
  begin
     id 25 
     name rhumerus
     direction -1 -4.48962e-011 -1.01384e-027  
     length 5.25396   
     axis 180 30 90   XYZ
    dof rx ry rz
    limits (-90.0 60.0)
           (-90.0 90.0)
           (-90.0 90.0)
  end
  begin
     id 26 
     name rradius
     direction -1 -4.48955e-011 8.88542e-027   
     length 3.10567   
     axis 180 30 90   XYZ
    dof rx
    limits (-10.0 170.0)
  end
  begin
     id 27 
     name rwrist
     direction -1 -4.48994e-011 1.5779e-026   
     length 1.55283   
     axis -1.15221e-014 -90 -90   XYZ
    dof ry
    limits (-180.0 0.0)
  end
  begin
     id 28
     name rhand
     direction -1 -4.48891e-011 3.1558e-026   
     length 0.498676   
     axis -2.01367e-014 -90 -90   XYZ
    dof rx rz
    limits (-90.0 90.0)
           (-45.0 45.0)
  end
  begin
     id 29
     name rfingers
     direction -1 -4.48972e-011 6.31161e-026   
     length 0.402045   
     axis -4.02734e-014 -90 -90   XYZ
    dof rx
    limits (0.0 90.0)
  end
  begin
     id 30
     name rthumb
     direction -0.707107 -6.34849e-011 0.707107   
     length 0.577259   
     axis -90 -45 -2.85299e-015   XYZ
    dof rx rz
    limits (-45.0 45.0)
           (-45.0 45.0)
  end
:hierarchy
  begin
    root lhipjoint rhipjoint lowerback
    lhipjoint lfemur
    lfemur ltibia
    ltibia lfoot
    lfoot ltoes
    rhipjoint rfemur
    rfemur rtibia
    rtibia rfoot
    rfoot rtoes
    lowerback upperback
    upperback thorax
    thorax lowerneck lclavicle rclavicle
    lowerneck upperneck
    upperneck head
    lclavicle lhumerus
    lhumerus lradius
    lradius lwrist
    lwrist lhand lthumb
    lhand lfingers
    rclavicle rhumerus
    rhumerus rradius
    rradius rwrist
    rwrist rhand rthumb
    rhand rfingers
  end

#!OML:ASF H:\Pregnant\Project 1\Capture day 1\Session 1\femalepreg.ASF
:FULLY-SPECIFIED
:DEGREES
124
root 2.55985 1.46457 19.7894 -84.6969 -83.3408 22.5564
lowerback 17.6741 -3.02305 -12.7913
upperback 11.1165 -7.02265 4.17384
thorax 4.53867 -5.15468 12.7029
lowerneck -19.7054 -1.98281 -12.8531
upperneck 38.0565 2.83435 -6.07451
head 17.5249 -2.38759 -0.220524
rclavicle -6.83819e-014 1.30403e-013
rhumerus -47.6773 18.0156 -47.6233
rradius 73.9154
rwrist 5.78207
rhand -29.4107 3.29922
rfingers 7.12502
rthumb 177.252 -206.663
lclavicle -6.83819e-014 1.30403e-013
lhumerus -98.8891 7.0985 72.993
lradius 37.5986
lwrist 109.593
lhand 116.62 10.9517
lfingers 7.12502
lthumb 144.637 -15.5187
rfemur -95.6146 -3.51723 -5.39698
rtibia 133.007
rfoot 16.3503 28.1414
rtoes -14.8668
lfemur -82.907 11.232 5.87076
ltibia 120.676
lfoot 22.4452 -32.5191
ltoes -15.9867
125
root 2.56206 1.46375 19.7802 -85.9271 -83.216 23.7054
lowerback 17.6094 -3.12426 -12.7126
upperback 10.9212 -7.13915 4.4045
thorax 4.41323 -5.19594 12.9403
lowerneck -19.435 -1.78792 -12.9245
upperneck 38.1684 3.22896 -6.46219
head 17.5312 -2.32229 -0.317455
rclavicle 7.95139e-014 1.90833e-014
rhumerus -47.5281 18.25 -47.1541
rradius 74.0063
rwrist 6.40164
rhand -30.1435 3.58833
rfingers 7.12502
rthumb 176.544 -206.363
lclavicle 7.95139e-014 1.90833e-014
lhumerus -98.9557 7.06834 73.9406
lradius 37.746
lwrist 110.134
lhand 116.767 9.57942
lfingers 7.12502
lthumb 144.776 -16.924
rfemur -95.7056 -3.38219 -5.42135
rtibia 133.049
rfoot 16.4396 28.2533
rtoes -14.626
lfemur -82.5891 11.3329 5.87474
ltibia 120.555
lfoot 22.5563 -32.4691
ltoes -15.8892
126
root 2.56426 1.46299 19.7712 -87.0952 -83.0823 24.7936
lowerback 17.5396 -3.22576 -12.6464
upperback 10.7194 -7.25852 4.65486
thorax 4.29091 -5.24099 13.2086
lowerneck -19.185 -1.59287 -13.0184
upperneck 38.2832 3.63577 -6.84709
head 17.5473 -2.25587 -0.408853
rclavicle -3.33958e-014 -7.31528e-014
rhumerus -47.3776 18.4614 -46.613
rradius 74.2075
rwrist 7.10438
rhand -30.7548 3.84126
rfingers 7.12502
rthumb 175.954 -206.1
lclavicle -3.33958e-014 -7.31528e-014
lhumerus -99.0177 7.0597 74.9064
lradius 37.8987
lwrist 110.673
lhand 116.921 8.27856
lfingers 7.12502
lthumb 144.922 -18.2594
rfemur -95.7994 -3.24543 -5.45092
rtibia 133.092
rfoot 16.5167 28.3773
rtoes -14.3733
lfemur -82.2708 11.4221 5.86943
ltibia 120.43
lfoot 22.6646 -32.4171
ltoes -15.839
127
root 2.56644 1.46222 19.7625 -88.1745 -82.9422 25.7951
lowerback 17.4625 -3.32984 -12.5826
upperback 10.5132 -7.38195 4.91865
thorax 4.17279 -5.28951 13.4944
lowerneck -18.9517 -1.39006 -13.1134
upperneck 38.3974 4.05916 -7.23184
head 17.5698 -2.18326 -0.498249
rclavicle 3.81667e-014 -6.99722e-014
rhumerus -47.2334 18.64 -46.0138
rradius 74.5457
rwrist 7.85162
rhand -31.1359 3.99475
rfingers 7.12502
rthumb 175.586 -205.939
lclavicle 3.81667e-014 -6.99722e-014
lhumerus -99.0728 7.0671 75.8626
lradius 38.0538
lwrist 111.194
lhand 117.079 7.01713
lfingers 7.12502
lthumb 145.072 -19.5556
rfemur -95.8949 -3.11096 -5.48292
rtibia 133.138
rfoot 16.5791 28.5119
rtoes -14.1168
lfemur -81.9577 11.4977 5.85735
ltibia 120.301
lfoot 22.7887 -32.3565
ltoes -15.7886
128
root 2.56863 1.46138 19.7541 -89.155 -82.7968 26.6996
lowerback 17.3746 -3.43799 -12.5108
upperback 10.3059 -7.50919 5.18686
thorax 4.06127 -5.34043 13.7804
lowerneck -18.7358 -1.18246 -13.2032
upperneck 38.5083 4.49007 -7.60872
head 17.5971 -2.10538 -0.584602
rclavicle 3.81667e-014 -1.90833e-014
rhumerus -47.1062 18.7769 -45.3782
rradius 75.0324
rwrist 8.58913
rhand -31.2106 4.01085
rfingers 7.12502
rthumb 175.514 -205.922
lclavicle 3.81667e-014 -1.90833e-014
lhumerus -99.1183 7.08105 76.7802
lradius 38.2083
lwrist 111.681
lhand 117.236 5.79261
lfingers 7.12502
lthumb 145.221 -20.8147
rfemur -95.9895 -2.98032 -5.51681
rtibia 133.186
rfoot 16.6246 28.6556
rtoes -13.8658
lfemur -81.6516 11.5573 5.84013
ltibia 120.17
lfoot 22.9495 -32.2758
ltoes -15.6728
129
root 2.57088 1.46043 19.7459 -90.0348 -82.6469 27.5045
lowerback 17.2696 -3.55147 -12.417
upperback 10.102 -7.63852 5.44622
thorax 3.9592 -5.39143 14.0412
lowerneck -18.5369 -0.97496 -13.2631
upperneck 38.6161 4.9109 -7.97289
head 17.6289 -2.0243 -0.672822
rclavicle 2.06736e-014 -7.31528e-014
rhumerus -47.0122 18.8617 -44.7386
rradius 75.6585
rwrist 9.26727
rhand -30.9553 3.88596
rfingers 7.12502
rthumb 175.76 -206.052
lclavicle 2.06736e-014 -7.31528e-014
lhumerus -99.151 7.08375 77.6317
lradius 38.3601
lwrist 112.126
lhand 117.389 4.5305
lfingers 7.12502
lthumb 145.367 -22.1104
rfemur -96.0812 -2.85355 -5.55226
rtibia 133.234
rfoot 16.6522 28.806
rtoes -13.6279
lfemur -81.3537 11.5988 5.81838
ltibia 120.035
lfoot 23.157 -32.1676
ltoes -15.4462
130
root 2.57324 1.45935 19.738 -90.8225 -82.4928 28.2179
lowerback 17.1416 -3.6706 -12.2918
upperback 9.90563 -7.76783 5.68644
thorax 3.86984 -5.44054 14.2575
lowerneck -18.3531 -0.773219 -13.2768
upperneck 38.7175 5.30601 -8.32114
head 17.6625 -1.9424 -0.766532
rclavicle -9.70069e-014 1.30403e-013
rhumerus -46.9624 18.8902 -44.1219
rradius 76.3966
rwrist 9.8645
rhand -30.4076 3.64657
rfingers 7.12502
rthumb 176.289 -206.301
lclavicle -9.70069e-014 1.30403e-013
lhumerus -99.1695 7.06205 78.3923
lradius 38.5064
lwrist 112.517
lhand 117.538 3.12099
lfingers 7.12502
lthumb 145.507 -23.552
rfemur -96.1693 -2.72931 -5.5896
rtibia 133.283
rfoot 16.6624 28.9606
rtoes -13.4071
lfemur -81.0643 11.6228 5.79134
ltibia 119.899
lfoot 23.4063 -32.0322
ltoes -15.095
131
root 2.57574 1.45809 19.7303 -91.5283 -82.3346 28.8492
lowerback 16.9861 -3.79518 -12.1292
upperback 9.72045 -7.89517 5.89966
thorax 3.7962 -5.48625 14.4146
lowerneck -18.1835 -0.584595 -13.2322
upperneck 38.8081 5.65907 -8.65086
head 17.6948 -1.86295 -0.868956
rclavicle -3.33958e-014 -6.04305e-014
rhumerus -46.9638 18.8625 -43.5493
rradius 77.2104
rwrist 10.3954
rhand -29.6525 3.32989
rfingers 7.12502
rthumb 177.018 -206.629
lclavicle -3.33958e-014 -6.04305e-014
lhumerus -99.1726 7.00523 79.0431
lradius 38.6452
lwrist 112.851
lhand 117.683 1.45642
lfingers 7.12502
lthumb 145.645 -25.2478
rfemur -96.2534 -2.60528 -5.62912
rtibia 133.332
rfoot 16.6571 29.1156
rtoes -13.2024
lfemur -80.784 11.6319 5.75679
ltibia 119.765
lfoot 23.6721 -31.8816
ltoes -14.6561
132
root 2.57842 1.45661 19.7228 -92.1633 -82.173 29.4088
lowerback 16.8027 -3.9248 -11.9298
upperback 9.54754 -8.02032 6.0847
thorax 3.7392 -5.5286 14.5109
lowerneck -18.0282 -0.412892 -13.1298
upperneck 38.8841 5.96404 -8.96037
head 17.7232 -1.78741 -0.979798
rclavicle -1.39944e-013 -9.54166e-015
rhumerus -47.0134 18.7891 -43.0278
rradius 78.0663
rwrist 10.9016
rhand -28.7973 2.96161
rfingers 7.12502
rthumb 177.844 -207.007
lclavicle -1.39944e-013 -9.54166e-015
lhumerus -99.1618 6.91423 79.5717
lradius 38.774
lwrist 113.122
lhand 117.829 -0.527991
lfingers 7.12502
lthumb 145.784 -27.2635
rfemur -96.3339 -2.47959 -5.67102
rtibia 133.381
rfoot 16.6395 29.2677
rtoes -13.0096
lfemur -80.514 11.6305 5.71253
ltibia 119.637
lfoot 23.9234 -31.7331
ltoes -14.1873
